<svg width="400" height="400" viewBox="0 0 400 400" fill="none" xmlns="http://www.w3.org/2000/svg">
<rect width="400" height="400" fill="#2d2c2c"/>
<path d="M289.967 176.001C289.807 176.22 289.658 176.348 289.488 176.551C289.128 177.156 288.789 177.687 288.441 178.308C288.098 178.85 287.764 179.302 287.425 179.846C287.186 180.032 286.845 180.059 286.735 180.232C285.662 181.923 284.627 183.639 283.575 185.442C283.043 186.045 282.421 186.487 282.008 187.075C280.357 189.433 278.779 191.843 277.156 194.222C274.966 197.433 272.745 200.622 270.564 203.839C267.646 208.144 264.781 212.483 261.845 216.775C259.505 220.194 257.086 223.559 254.72 226.96C254.33 227.521 254.035 228.148 253.691 228.844C251.69 230.065 250.591 232.927 251.401 235.161C251.753 236.131 251.786 237.361 253.112 237.853C254.198 238.769 255.103 239.819 256.238 240.464C258.663 241.842 261.297 242.563 264.15 242.488C267.423 242.401 270.701 242.444 273.976 242.484C278.095 242.534 282.213 242.676 286.332 242.71C291.294 242.751 296.257 242.751 301.219 242.709C305.763 242.671 310.307 242.518 314.851 242.48C319.808 242.439 324.766 242.471 330 242.471C329.775 243.18 329.762 243.64 329.527 243.902C326.109 247.713 322.723 251.556 319.188 255.257C317.92 256.585 316.268 257.547 314.805 258.693C314.345 259.053 313.929 259.471 313.454 259.935C311.592 260.9 309.737 261.733 307.951 262.693C304.723 264.429 301.22 265.311 297.667 265.923C294.961 266.389 292.197 266.622 289.45 266.712C285.453 266.843 281.447 266.729 277.445 266.759C268.894 266.824 260.344 266.979 251.793 266.983C203.953 267.007 156.112 266.998 108.272 266.999C107.847 266.999 107.421 266.992 106.854 266.957C106.649 266.888 106.594 266.903 106.55 266.968C106.428 266.969 106.306 266.971 106.025 266.915C104.977 266.477 104.088 266.096 103.22 265.706C103.24 265.697 103.245 265.646 103.245 265.646C103.245 265.646 103.204 265.72 103.114 265.704C101.056 264.632 99.0474 263.645 97.1307 262.504C95.033 261.255 93.02 259.864 90.9383 258.458C88.1057 255.763 85.2831 253.167 82.5136 250.516C81.1884 249.247 79.9638 247.874 78.6604 246.498C78.5764 246.381 78.5122 246.333 78.4347 246.217C78.2747 245.922 78.1142 245.712 77.9431 245.413C77.3457 244.612 76.7589 243.902 76.1587 243.1C75.9969 242.708 75.8669 242.397 75.6972 242.108C74.4001 239.904 73.0733 237.718 71.8006 235.5C70.9035 233.937 70.0765 232.333 69.2148 230.649C69.0114 229.903 68.8736 229.229 68.6019 228.613C66.5428 223.948 65.4244 219 64.3998 214.05C63.7856 211.084 63.6455 208.018 63.313 204.995C62.6225 198.717 63.1596 192.475 64.0962 186.276C64.5039 183.578 65.3171 180.931 66.0905 178.302C66.6752 176.315 67.5036 174.401 68.1952 172.444C68.5685 171.388 68.8824 170.31 69.3092 169.222C70.3681 167.452 71.3676 165.717 72.3054 163.948C73.026 162.59 73.6688 161.19 74.4277 159.786C74.6268 159.525 74.7444 159.286 74.9504 159.03C76.0074 157.584 76.976 156.155 78.0259 154.701C79.0798 153.508 80.0522 152.34 81.1012 151.142C81.3692 150.862 81.5605 150.612 81.826 150.34C82.0269 150.169 82.1535 150.019 82.3636 149.843C82.8668 149.48 83.3569 149.201 83.6921 148.794C84.438 147.889 85.1063 146.921 85.8135 145.981C85.8207 145.983 85.8087 145.993 85.9061 145.997C86.3663 145.615 86.7292 145.229 87.1028 144.809C87.146 144.736 87.1877 144.719 87.3122 144.697C87.4618 144.6 87.5378 144.53 87.6133 144.469C87.6128 144.477 87.5967 144.473 87.6539 144.441C87.7633 144.341 87.8154 144.272 87.8654 144.211C87.8634 144.219 87.8512 144.208 87.9513 144.215C89.1027 144.028 90.1275 143.803 90.1546 142.42C90.157 142.423 90.1561 142.42 90.2477 142.418C91.0439 141.821 91.7485 141.225 92.4592 140.638C92.4652 140.647 92.4554 140.63 92.5518 140.638C93.8022 140.08 94.9723 139.542 96.0973 138.923C96.3314 138.794 96.3984 138.363 96.5504 138.074C96.5584 138.077 96.5415 138.079 96.643 138.087C97.0707 138.025 97.4287 138.02 97.7185 137.877C100.61 136.452 103.425 134.849 106.392 133.608C108.991 132.521 111.708 131.58 114.463 131.033C117.767 130.377 121.159 130.037 124.528 129.865C129.997 129.587 135.478 129.507 140.955 129.44C143.783 129.406 146.613 129.631 149.444 129.647C155.513 129.682 161.582 129.684 167.652 129.651C178.577 129.592 189.501 129.497 200.426 129.422C202.198 129.409 203.97 129.417 205.742 129.417C211.273 129.416 216.805 129.403 222.336 129.444C222.663 129.446 222.987 129.884 223.277 130.202C222.694 131.212 222.147 132.139 221.599 133.067C221.599 133.067 221.587 133.077 221.501 133.063C221.158 133.249 220.857 133.411 220.654 133.655C217.837 137.043 215.127 140.483 211.679 143.335C207.651 146.666 203.364 149.493 198.388 151.001C195.171 151.976 191.775 152.547 188.419 152.836C184.278 153.192 180.096 153.123 175.932 153.132C172.448 153.14 168.965 152.964 165.481 152.927C161.834 152.889 158.184 152.848 154.539 152.935C148.213 153.085 141.895 152.716 135.552 153.32C129.251 153.92 123.408 155.747 118.029 158.823C113.888 161.191 110.096 164.145 106.936 167.873C103.585 171.826 100.688 176.027 98.906 180.881C97.908 183.6 97.1081 186.452 96.7062 189.312C96.2133 192.82 95.8208 196.436 96.139 199.937C96.4674 203.55 97.3128 207.154 98.7515 210.6C100.08 213.781 101.508 216.849 103.733 219.5C103.924 219.727 104.274 219.823 104.549 219.979C104.549 219.979 104.556 219.967 104.562 219.964C104.666 220.359 104.636 220.883 104.884 221.136C106.625 222.918 108.424 224.644 110.288 226.508C111.225 227.316 112.078 228.005 112.93 228.694C112.93 228.694 112.917 228.708 112.914 228.796C113.27 230.017 114.17 230.474 115.227 230.734C115.227 230.734 115.222 230.749 115.246 230.801C115.34 230.901 115.411 230.949 115.482 230.997C115.482 230.997 115.468 231.004 115.497 231.056C115.596 231.157 115.666 231.204 115.737 231.252C115.737 231.252 115.722 231.248 115.734 231.336C116.169 231.707 116.592 231.989 117.016 232.272C117.016 232.272 117.002 232.28 117.032 232.329C117.131 232.428 117.2 232.478 117.268 232.528C117.268 232.528 117.258 232.522 117.267 232.611C117.785 233.066 118.294 233.431 118.803 233.797C118.803 233.797 118.792 233.811 118.791 233.9C118.87 234.223 118.876 234.563 119.04 234.676C121.226 236.185 123.348 237.813 125.654 239.115C130.309 241.742 135.503 242.627 140.73 242.685C155.118 242.844 169.508 242.783 183.897 242.728C187.756 242.713 191.646 242.657 195.464 242.172C200.897 241.482 206.01 239.633 210.651 236.659C211.438 236.155 212.048 235.374 212.764 234.734C212.788 234.747 212.786 234.801 212.879 234.798C213.599 234.205 214.227 233.616 214.862 233.032C214.87 233.039 214.852 233.032 214.946 233.036C215.488 232.611 215.936 232.181 216.386 231.761C216.387 231.77 216.38 231.752 216.469 231.748C216.754 231.489 216.951 231.234 217.155 230.982C217.163 230.985 217.151 230.996 217.21 230.968C217.316 230.872 217.365 230.803 217.411 230.738C217.408 230.743 217.408 230.731 217.501 230.738C217.787 230.485 217.979 230.226 218.165 229.968C218.158 229.969 218.158 229.956 218.249 229.958C218.617 229.614 218.894 229.268 219.177 228.921C219.183 228.92 219.176 228.927 219.267 228.927C219.899 228.25 220.441 227.573 220.987 226.905C220.991 226.914 220.972 226.91 221.038 226.867C221.149 226.68 221.195 226.537 221.248 226.397C221.256 226.402 221.239 226.404 221.295 226.373C221.402 226.275 221.452 226.207 221.499 226.146C221.497 226.153 221.493 226.139 221.581 226.134C221.862 225.871 222.054 225.613 222.255 225.355C222.263 225.356 222.251 225.367 222.338 225.355C222.797 224.758 223.169 224.173 223.543 223.596C223.545 223.603 223.536 223.589 223.623 223.577C224.724 222.661 225.703 221.735 225.846 220.276C225.849 220.285 225.834 220.272 225.924 220.265C226.96 219.034 227.95 217.839 228.833 216.571C229.225 216.009 229.4 215.297 229.669 214.659C229.665 214.666 229.659 214.652 229.748 214.642C229.953 214.385 230.067 214.137 230.19 213.895C230.198 213.9 230.181 213.888 230.269 213.876C230.469 213.617 230.582 213.369 230.693 213.129C230.691 213.137 230.686 213.121 230.774 213.112C231.162 212.759 231.508 212.445 231.758 212.068C233.876 208.873 235.999 205.679 238.066 202.45C238.46 201.833 238.61 201.06 238.87 200.366C238.867 200.374 238.86 200.359 238.948 200.35C239.141 200.275 239.284 200.233 239.348 200.139C241.534 196.885 243.72 193.63 245.875 190.356C246.041 190.105 245.984 189.709 246.032 189.389C246.033 189.397 246.018 189.389 246.107 189.382C246.822 188.357 247.446 187.339 248.064 186.325C248.059 186.33 248.054 186.316 248.144 186.307C248.521 185.793 248.809 185.289 249.098 184.794C249.1 184.803 249.083 184.795 249.174 184.785C249.803 183.844 250.342 182.914 250.886 181.99C250.891 181.996 250.879 181.983 250.968 181.978C251.761 180.996 252.501 180.043 253.16 179.038C255.687 175.187 258.196 171.325 260.684 167.449C260.92 167.081 260.967 166.59 261.11 166.164C261.118 166.172 261.099 166.158 261.186 166.147C261.984 164.952 262.694 163.767 263.396 162.586C263.388 162.59 263.381 162.574 263.473 162.573C264.18 161.543 264.794 160.513 265.418 159.486C265.427 159.488 265.421 159.505 265.514 159.492C265.723 159.153 265.84 158.826 265.95 158.502C265.943 158.506 265.938 158.49 266.029 158.491C266.832 157.388 267.544 156.284 268.264 155.187C268.273 155.193 268.252 155.186 268.333 155.154C268.566 154.976 268.754 154.854 268.863 154.682C270.358 152.338 271.861 149.999 273.313 147.628C273.607 147.147 273.696 146.54 273.877 145.999C273.876 146.007 273.87 145.992 273.96 145.987C274.647 145.293 275.308 144.649 275.824 143.904C276.673 142.678 277.428 141.387 278.226 140.128C278.23 140.132 278.22 140.122 278.312 140.119C278.683 139.691 278.962 139.266 279.236 138.845C279.23 138.849 279.227 138.835 279.318 138.835C279.778 138.41 280.146 137.984 280.51 137.566C280.505 137.573 280.503 137.556 280.596 137.551C280.889 137.212 281.09 136.878 281.298 136.552C281.305 136.56 281.286 136.551 281.371 136.55C281.656 136.375 281.858 136.202 282.051 136.033C282.044 136.038 282.036 136.022 282.127 136.018C282.76 135.427 283.301 134.84 283.849 134.258C283.854 134.263 283.848 134.249 283.94 134.251C284.566 133.742 285.1 133.231 285.638 132.727C285.641 132.733 285.638 132.719 285.715 132.72C285.912 132.632 286.031 132.545 286.15 132.467C286.151 132.477 286.139 132.461 286.228 132.454C286.856 131.942 287.395 131.436 287.941 130.94C287.949 130.948 287.935 130.93 288.028 130.939C288.74 130.514 289.359 130.08 289.966 129.65C289.953 129.654 289.946 129.629 290.041 129.634C291.686 128.887 293.276 128.206 294.779 127.369C298.251 125.435 301.954 124.214 305.851 123.509C306.454 123.4 307.028 123.134 307.626 122.887C307.671 122.759 307.729 122.719 307.89 122.78C308.295 122.861 308.624 122.916 308.945 122.885C310.962 122.692 312.972 122.386 314.993 122.295C318.663 122.131 322.339 122.092 326.012 122C326.979 122.641 326.106 123.117 325.808 123.538C323.805 126.365 321.763 129.164 319.722 131.964C318.253 133.979 316.729 135.956 315.301 137.999C314.087 139.735 313 141.558 311.812 143.312C310.528 145.208 309.162 147.048 307.886 148.949C305.192 152.96 302.556 157.009 299.855 161.015C297.795 164.069 295.636 167.057 293.586 170.118C292.321 172.007 291.177 173.977 289.967 176.001Z" fill="#00FFFF"/>
<path d="M212.266 220.735C212.252 220.673 212.272 220.624 212.443 220.543C212.643 220.428 212.728 220.36 212.813 220.291C212.813 220.291 212.737 220.314 212.822 220.3C213.779 219.388 214.783 218.581 215.497 217.575C217.227 215.137 218.807 212.597 220.476 210.117C221.212 209.023 222.067 208.007 222.78 206.9C224.267 204.593 225.67 202.233 227.158 199.927C227.981 198.653 228.94 197.465 229.776 196.198C230.905 194.487 231.949 192.722 233.075 191.009C234.407 188.983 235.808 187.001 237.142 184.977C238.918 182.281 240.645 179.554 242.419 176.858C243.97 174.501 245.585 172.185 247.123 169.82C248.955 167.002 250.734 164.15 252.538 161.315C252.653 161.134 252.791 160.967 252.918 160.793C254.119 159.147 255.385 157.542 256.505 155.844C258.105 153.418 259.545 150.889 261.15 148.468C262.85 145.904 264.609 143.376 266.445 140.907C267.845 139.025 269.474 137.31 270.871 135.426C271.819 134.147 272.541 132.704 273.365 131.335C273.349 131.282 273.367 131.244 273.563 131.226C273.856 131.008 274.005 130.787 274.154 130.565C274.154 130.565 274.174 130.486 274.302 130.517C275.1 130.276 275.823 130.047 275.648 129.089C275.648 129.089 275.657 129.115 275.741 129.119C275.943 128.938 276.062 128.754 276.18 128.569C276.18 128.569 276.186 128.591 276.276 128.611C276.996 128.291 277.694 128.034 278.245 127.596C280.065 126.149 281.756 124.535 283.642 123.181C285.227 122.043 286.973 121.1 288.721 120.21C291.029 119.036 293.345 117.833 295.772 116.945C298.538 115.933 301.393 115.09 304.276 114.476C307.142 113.865 310.08 113.514 313.006 113.266C315.497 113.055 318.015 113.14 320.521 113.114C325.346 113.062 330.171 113.015 334.997 113C335.333 112.999 335.878 113.207 335.958 113.439C336.072 113.775 335.939 114.273 335.745 114.608C335.54 114.963 335.102 115.179 334.832 115.508C333.908 116.639 333.014 117.792 332.069 118.967C331.984 119.044 331.956 119.101 331.932 119.229C331.919 119.292 331.876 119.413 331.771 119.419C328.31 120.332 324.884 120.447 321.424 120.47C318.185 120.493 314.893 120.5 311.724 121.058C308.127 121.691 304.431 122.132 301.09 123.873C298.799 125.067 296.378 126.016 294.054 127.151C293.524 127.41 293.156 127.988 292.611 128.417C292.02 128.564 291.437 128.594 291.058 128.884C289.499 130.078 287.978 131.324 286.497 132.612C286.045 133.005 285.765 133.591 285.308 134.088C283.355 134.491 282.723 136.136 281.66 137.465C281.29 137.998 280.995 138.485 280.61 138.985C280.143 139.335 279.679 139.614 279.401 140.017C276.34 144.461 273.285 148.909 270.286 153.394C269.712 154.253 269.389 155.274 268.864 156.24C268.226 157.19 267.674 158.121 267.033 159.067C265.988 160.387 264.969 161.652 264.098 163.009C263.441 164.031 262.973 165.171 262.331 166.275C262 166.518 261.704 166.711 261.524 166.98C259.457 170.057 257.399 173.14 255.37 176.24C255.177 176.536 255.192 176.964 255.03 177.369C253.935 178.793 252.849 180.136 251.926 181.58C251.228 182.672 250.737 183.894 250.068 185.077C248.81 186.698 247.57 188.258 246.488 189.917C245.686 191.146 245.09 192.505 244.314 193.821C243.59 194.858 242.957 195.88 242.233 196.916C240.918 198.602 239.625 200.231 238.492 201.961C237.735 203.117 237.207 204.418 236.488 205.669C235.309 206.66 234.389 207.736 234.141 209.275C233.098 210.589 232.082 211.848 231.213 213.2C230.552 214.228 230.079 215.374 229.47 216.501C229.355 216.586 229.306 216.649 229.191 216.74C228.985 216.914 228.858 217.07 228.657 217.273C228.382 217.539 228.161 217.745 227.982 217.981C225.848 220.805 223.713 223.629 221.593 226.463C220.823 227.493 220.091 228.55 219.252 229.61C217.744 230.773 216.302 231.893 214.921 233.083C214.245 233.665 213.685 234.379 213.012 235.065C212.782 235.244 212.612 235.391 212.339 235.538C211.999 235.712 211.761 235.887 211.522 236.053C211.521 236.044 211.539 236.049 211.433 236.044C210.534 236.014 209.838 236.135 209.695 237.083C209.692 237.074 209.711 237.078 209.611 237.077C209.268 237.156 209.008 237.204 208.782 237.318C202.674 240.38 196.177 241.9 189.345 241.939C180.05 241.992 170.755 241.968 161.459 241.94C159.118 241.933 156.776 241.716 154.435 241.721C151.587 241.728 148.739 241.873 145.891 241.95C141.803 242.06 137.699 242.07 133.712 241.115C131.019 240.471 128.411 239.461 125.794 238.533C124.47 238.064 123.211 237.414 121.925 236.856C121.928 236.865 121.909 236.871 121.902 236.778C121.644 236.565 121.393 236.443 121.14 236.335C121.14 236.348 121.114 236.357 121.117 236.266C120.013 235.087 118.922 233.983 117.794 232.919C116.855 232.033 115.87 231.193 115 230.356C119.021 232.158 123.195 232.919 127.467 232.93C147.981 232.984 168.495 232.898 189.008 233.004C194.172 233.031 198.894 231.656 203.246 229.236C206.029 227.689 208.435 225.445 210.874 223.36C211.579 222.759 211.815 221.625 212.266 220.735Z" fill="#FFA500"/>
<path d="M92.4643 279.399C92.3432 279.303 92.2918 279.227 92.1649 279.133C91.9868 279 91.8643 278.901 91.665 278.796C91.0633 277.855 90.5385 276.921 90.0041 275.877C89.9943 275.768 90.0052 275.753 90.0052 275.753C91.9809 276.793 93.9664 277.809 95.9303 278.877C100.067 281.127 104.399 282.41 108.988 282.436C127.995 282.545 147.002 282.699 166.009 282.739C190.909 282.793 215.808 282.758 240.708 282.754C261.904 282.752 283.101 282.783 304.297 282.699C309.272 282.679 314.265 282.478 319.211 281.912C321.45 281.656 323.665 280.487 325.762 279.401C328.301 278.086 330.707 276.431 333.156 274.89C333.387 274.745 333.51 274.371 333.669 273.997C333.654 273.892 333.67 273.899 333.747 273.868C333.889 273.744 333.955 273.65 334.02 273.555C334.02 273.555 334.01 273.603 334.091 273.612C335.154 273.478 336.088 273.265 336.131 271.79C336.131 271.79 336.137 271.811 336.231 271.819C338.262 271.561 339.313 269.83 340.501 268.382C340.94 267.847 341.107 267.017 341.398 266.322C341.398 266.322 341.399 266.344 341.491 266.348C341.773 266.024 341.964 265.698 342.154 265.371C342.154 265.371 342.194 265.407 342.239 265.372C342.34 265.234 342.397 265.131 342.453 265.027C342.463 264.938 342.505 264.878 342.63 264.838C344.656 264.32 345.436 262.346 346.374 260.664C347.368 258.88 348.142 256.935 349.01 255.058C349.171 254.709 349.32 254.353 349.475 254C349.65 254.137 349.825 254.273 350 254.41C349.803 255.283 349.72 256.217 349.392 257.018C347.207 262.338 345.01 267.647 341.054 271.651C340.07 272.646 339.389 274.042 338.392 275.013C336.774 276.59 335.015 277.976 333.307 279.429C330.508 281.81 327.431 283.324 323.996 284.218C322.141 284.701 320.424 285.996 318.416 286.13C316.014 286.291 313.618 286.607 311.216 286.668C307.486 286.763 303.752 286.665 300.02 286.711C294.978 286.772 289.936 286.945 284.894 286.967C281.535 286.982 278.175 286.743 274.816 286.75C270.52 286.76 266.224 286.938 261.928 286.98C257.562 287.022 253.196 286.986 248.829 286.985C245.433 286.985 242.037 287.02 238.642 286.974C236.321 286.943 234.002 286.714 231.682 286.719C193.592 286.797 155.503 286.928 117.413 286.941C114.159 286.943 110.904 286.211 107.651 285.796C106.115 285.6 104.503 285.624 103.069 285.063C100.302 283.979 97.6374 282.551 94.8358 281.245C94.3641 280.92 93.9872 280.615 93.5183 280.31C93.395 280.217 93.3444 280.141 93.2198 280.045C92.9613 279.807 92.7575 279.605 92.4643 279.399Z" fill="#FFA500"/>
<path d="M76.8964 255.358C75.9225 254.163 75.0616 252.968 74.156 251.808C71.8765 248.889 69.3955 246.11 67.3378 243.041C65.403 240.155 63.7816 237.032 62.2609 233.895C61.2481 231.806 60.6823 229.499 59.8616 227.31C59.384 226.037 58.6706 224.842 58.2926 223.544C57.7898 221.817 57.5056 220.025 57.1361 218.259C56.7351 216.342 56.2584 214.437 55.971 212.503C55.6387 210.266 55.3851 208.01 55.2631 205.753C55.0908 202.563 54.9405 199.361 55.0235 196.171C55.0988 193.282 55.4994 190.401 55.7632 187.41C56.5897 183.946 57.371 180.579 58.2526 177.238C58.5197 176.226 59.1065 175.304 59.467 174.312C59.6993 173.672 59.7013 172.944 59.9525 172.315C61.361 168.787 62.7083 165.229 64.2942 161.783C65.1387 159.948 66.4423 158.332 67.4936 156.589C67.7613 156.145 67.8571 155.596 68.0261 154.994C68.8997 153.94 69.8188 153.02 70.6488 152.024C71.8456 150.589 72.8951 149.02 74.1581 147.65C75.8234 145.843 77.6616 144.199 79.3679 142.429C79.9339 141.842 80.3219 141.08 80.7999 140.309C82.4071 139.137 84.0187 138.071 85.6009 136.963C87.4628 135.658 89.2466 134.233 91.161 133.014C93.1813 131.728 95.2889 130.573 97.4097 129.46C98.7573 128.753 100.199 128.229 101.597 127.621C102.966 127.025 104.314 126.371 105.709 125.848C106.679 125.484 107.715 125.299 108.721 125.033C112.733 123.971 116.709 122.777 120.921 122.732C124.832 122.69 128.741 122.496 132.65 122.363C133.022 122.35 133.392 122.296 133.856 122.254C134.137 122.249 134.325 122.25 134.607 122.247C135.723 122.243 136.744 122.242 137.862 122.242C139.469 122.246 140.979 122.249 142.607 122.248C143.901 122.161 145.077 122.08 146.364 122C146.956 122.086 147.436 122.244 147.916 122.245C155.386 122.26 162.856 122.237 170.326 122.267C172.658 122.276 174.99 122.48 177.322 122.476C180.114 122.47 182.906 122.29 185.698 122.277C187.57 122.268 189.444 122.495 191.316 122.481C195.946 122.447 200.575 122.29 205.205 122.263C212.041 122.223 218.877 122.253 225.713 122.253C227.094 122.253 228.474 122.253 229.854 122.253C229.903 122.377 229.951 122.5 230 122.624C228.113 125.086 226.227 127.549 224.149 130.054C220.457 130.178 216.956 130.276 213.455 130.339C211.591 130.372 209.726 130.327 207.862 130.347C200.81 130.424 193.759 130.581 186.708 130.579C178.863 130.577 171.018 130.396 163.173 130.369C159.388 130.355 155.602 130.573 151.817 130.579C148.664 130.585 145.51 130.359 142.357 130.37C137.519 130.386 132.682 130.504 127.845 130.606C124.14 130.683 120.464 130.909 116.825 131.793C111.568 133.07 106.416 134.575 101.712 137.347C99.469 138.669 97.1636 139.912 95.049 141.423C92.3801 143.33 89.8688 145.463 87.3183 147.535C87.1083 147.706 87.1183 148.152 86.9761 148.468C86.926 148.464 86.8915 148.369 86.7969 148.385C85.2817 148.556 85.1587 150.081 84.2462 150.809C83.5279 151.383 83.1162 152.348 82.5647 153.132C82.5611 153.124 82.5763 153.131 82.48 153.129C81.2497 153.205 81.1784 154.076 81.0705 154.911C81.0685 154.901 81.0862 154.908 80.9975 154.928C80.7977 155.209 80.6867 155.468 80.5666 155.769C80.5356 155.864 80.498 155.903 80.3482 155.933C79.7852 156.618 79.3186 157.297 78.8596 157.976C78.8671 157.975 78.8678 157.99 78.775 157.985C78.4207 158.166 78.0737 158.296 77.911 158.548C76.5533 160.647 75.1653 162.731 73.9213 164.898C73.2481 166.071 72.838 167.397 72.3192 168.692C72.3292 168.729 72.3086 168.804 72.2234 168.828C71.328 170.491 70.4216 172.091 69.7382 173.783C69.1976 175.121 68.9308 176.573 68.545 178.024C68.5477 178.075 68.5358 178.175 68.4493 178.198C68.2077 178.458 67.9792 178.675 67.909 178.935C67.1898 181.602 66.2834 184.24 65.8424 186.955C65.0644 191.744 64.4151 196.563 64.7436 201.455C64.9263 204.177 64.6924 206.95 65.1044 209.628C65.7596 213.888 66.786 218.09 67.6897 222.309C67.7933 222.794 68.1159 223.23 68.3317 223.697C68.3263 223.706 68.3089 223.695 68.2976 223.801C68.7887 225.629 69.1411 227.413 69.8249 229.058C71.2204 232.414 72.7678 235.707 74.3245 238.991C74.5475 239.461 75.1707 239.738 75.6085 240.123C75.6084 240.141 75.5723 240.144 75.5637 240.244C75.6684 240.735 75.6883 241.193 75.9097 241.506C77.5847 243.871 79.2681 246.233 81.0213 248.539C81.5173 249.192 82.2537 249.658 82.8827 250.215C82.8856 250.219 82.893 250.227 82.874 250.324C83.2181 250.708 83.5813 250.994 83.98 251.298C84.0593 251.351 84.0829 251.397 84.0838 251.56C84.1198 252.686 84.5494 253.254 85.6923 253.068C85.7932 253.125 85.829 253.178 85.8485 253.328C85.9416 253.543 86.0306 253.674 86.1258 253.778C86.1319 253.749 86.1881 253.759 86.1647 253.849C86.8006 254.719 87.4288 255.531 88.1363 256.265C88.3849 256.523 88.8281 256.589 89.1785 256.774C89.1746 256.805 89.1133 256.798 89.1503 256.867C89.328 256.989 89.4687 257.042 89.6047 257.087C89.6002 257.079 89.6171 257.07 89.6204 257.163C89.9501 257.46 90.2767 257.664 90.5963 257.872C90.5893 257.877 90.584 257.861 90.6192 257.914C90.7196 258.022 90.7849 258.075 90.844 258.116C90.8377 258.103 90.8637 258.09 90.8657 258.178C90.9842 258.854 91.23 259.221 91.9488 258.898C92.1217 259.033 92.2377 259.146 92.3598 259.358C92.5079 259.75 92.5732 260.152 92.8044 260.317C94.2141 261.321 95.6461 262.296 97.1052 263.226C97.5714 263.523 98.1427 263.652 98.6764 263.849C98.6869 263.841 98.7097 263.855 98.6966 263.951C99.0893 264.982 99.8924 264.997 100.763 264.947C100.802 264.95 100.863 264.996 100.9 265.041C100.994 265.139 101.058 265.182 101.123 265.201C101.115 265.189 101.139 265.174 101.144 265.265C101.977 265.905 102.804 266.452 103.632 267C101.788 266.812 99.9098 266.788 98.1113 266.394C95.9698 265.924 93.8454 265.267 91.8059 264.455C88.1703 263.008 84.8185 261.049 81.7192 258.593C80.2387 257.42 79.0158 255.761 76.8964 255.358Z" fill="#FFA500"/>
<path d="M256.155 239.751C255.211 238.751 254.375 237.752 253.529 236.761C252.444 235.489 251.886 234.023 252.019 232.195C254.568 232.178 257.116 232.343 259.664 232.329C264.365 232.303 269.065 232.106 273.766 232.097C290.225 232.065 306.684 232.011 323.142 232.122C328.528 232.158 333.911 231.844 339.293 232.103C339.868 232.131 340.431 232.414 341 232.579C340.773 233.044 340.59 233.54 340.312 233.969C338.591 236.62 336.849 239.256 335.043 241.958C330.139 241.968 325.307 241.869 320.476 241.877C303.205 241.905 285.934 241.991 268.664 242C265.509 242.002 262.336 241.909 259.281 240.881C258.264 240.539 257.265 240.132 256.155 239.751Z" fill="#FFA500"/>
<path d="M230 154.806C227.419 160.03 224.024 163.655 220.461 166.908C219 168.242 217.497 169.451 215.98 170.876C214.408 171.594 212.886 172.326 211.33 172.675C208.133 173.392 204.925 174.298 201.711 174.419C194.774 174.679 187.83 174.54 180.889 174.48C166.017 174.353 151.144 174 136.273 174.148C132.956 174.18 129.643 175.878 126.335 176.864C126.03 176.955 125.77 177.442 125.453 177.917C125.418 178.088 125.4 178.085 125.279 178.041C124.173 178.105 123.187 178.231 122.2 178.316C121.389 178.386 121.061 179.067 121.161 180.505C121.166 180.76 121.171 180.861 121.176 180.963C121.176 180.963 121.204 180.929 121.216 180.95C120.766 181.278 120.303 181.585 119.75 182C119.391 181.23 119.122 180.352 118.751 179.387C118.631 178.663 118.603 178.026 118.598 177.388C118.589 176.362 118.595 175.336 118.595 173.965C118.55 173.884 117.973 173.295 118.001 172.796C118.034 172.21 118.534 171.462 118.933 171.202C121.561 169.49 124.222 167.918 126.856 166.234C127.378 165.9 127.832 165.281 128.332 164.599C128.29 164.103 128.234 163.802 128.12 163.447C126.56 162.276 125.237 163.442 123.872 164.239C122.368 165.117 120.846 165.913 119.195 166.717C119.058 166.689 119.022 166.634 119.022 166.634C119.705 165.937 120.389 165.241 121.117 164.396C123.381 163.37 125.578 162.267 127.826 161.674C130.424 160.987 133.064 160.429 135.69 160.371C148.229 160.098 160.77 159.928 173.311 159.893C181.303 159.87 189.297 160.333 197.288 160.208C201.209 160.147 205.136 159.397 209.038 158.644C210.592 158.344 212.085 157.194 213.712 156.393C215.011 157.277 215.925 155.838 216.975 155.45C219.239 154.613 221.443 153.535 223.689 152.03C224.657 151.618 225.517 151.204 226.396 151.01C226.717 150.939 227.159 151.269 227.391 151.661C227.502 151.846 227.348 152.852 227.147 153.064C225.201 155.111 223.23 157.095 221.242 159.031C220.697 159.563 220.072 159.876 219.483 160.289C219.534 160.52 219.584 160.751 219.634 160.982C221.039 160.075 222.444 159.168 223.997 158.322C224.308 158.177 224.472 157.971 224.635 157.766C224.635 157.766 224.612 157.751 224.609 157.732C225.566 157.048 226.524 156.373 227.489 155.724C228.265 155.202 228.821 153.216 230 154.806ZM120.09 173.278C120.06 173.341 120.021 173.397 120.003 173.467C119.985 173.536 119.989 173.619 119.983 173.695C120.343 173.654 120.704 173.612 121.064 173.57C121.041 173.347 121.017 173.123 120.994 172.9C120.741 172.973 120.489 173.046 120.09 173.278ZM218.192 161.012C218.105 161.016 218.019 161.019 217.932 161.022C218.034 161.046 218.136 161.071 218.192 161.012Z" fill="#8A2BE2"/>
<path d="M220.03 171.774C220.03 171.774 219.92 171.809 219.863 171.812C217.583 172.833 215.299 173.705 213.153 174.908C210.282 176.517 207.253 177.189 204.137 177.346C198.453 177.632 192.765 177.9 187.077 177.934C180.269 177.975 173.459 177.757 166.65 177.662C159.084 177.557 151.516 177.326 143.952 177.429C140.454 177.477 136.88 177.574 133.522 179.032C131.948 179.714 130.446 180.618 128.911 181.417C128.509 181.626 128.101 181.818 127.499 182C126.843 181.759 126.384 181.536 126 181.35C126.36 180.405 126.647 179.654 127.029 178.891C128.056 178.364 128.951 177.718 129.925 177.361C132.122 176.557 134.196 175.29 136.629 175.352C137.665 175.378 138.715 174.69 139.859 174.309C140.159 174.275 140.36 174.259 140.643 174.32C141.484 174.341 142.241 174.284 143.121 174.233C144.307 174.235 145.372 174.231 146.524 174.309C146.693 174.433 146.774 174.507 146.856 174.508C152.828 174.631 158.8 174.761 164.772 174.857C167.425 174.9 170.079 174.845 172.732 174.881C179.265 174.969 185.797 175.127 192.329 175.169C195.124 175.187 197.92 175.005 200.713 174.86C201.09 174.84 201.455 174.506 201.937 174.301C202.42 174.273 202.793 174.26 203.244 174.321C204.161 174.163 205 173.932 205.926 173.682C206.129 173.644 206.246 173.625 206.433 173.682C209.644 173.475 212.392 171.851 215.157 170.304C215.328 170.208 215.36 169.777 215.522 169.434C217.822 167.553 220.094 165.797 222.273 163.897C223.07 163.202 223.646 162.165 224.329 161.282C224.335 161.28 224.338 161.266 224.429 161.305C225.343 160.38 226.167 159.416 226.991 158.451C226.991 158.451 226.974 158.45 227.047 158.404C227.175 158.104 227.23 157.852 227.284 157.599C227.805 157.067 228.327 156.536 228.871 155.909C229.006 155.687 229.118 155.56 229.398 155.392C230.185 154.745 230.922 154.242 231.398 153.511C232.213 152.259 233.521 151.269 233.332 149.375C233.332 149.375 233.339 149.403 233.425 149.407C234.172 148.167 234.834 146.922 235.495 145.677C235.495 145.677 235.499 145.706 235.585 145.695C235.787 145.368 235.902 145.051 236.018 144.735C236.018 144.735 236.02 144.762 236.107 144.76C237.289 144.247 237.599 143.195 237.633 141.953C237.633 141.953 237.637 141.986 237.722 141.972C237.917 141.639 238.027 141.32 238.136 141C238.136 141 238.145 141.036 238.242 141.049C238.565 141.061 238.789 141.06 239 141.176C238.739 142.383 238.492 143.473 238.245 144.562C238.245 144.562 238.234 144.528 238.183 144.587C238.089 144.836 238.048 145.025 238.007 145.215C238.007 145.215 237.996 145.166 237.942 145.217C237.838 145.458 237.789 145.647 237.739 145.837C237.739 145.837 237.736 145.808 237.652 145.817C237.318 146.563 237.069 147.3 236.82 148.037C236.82 148.037 236.833 148.108 236.711 148.108C236.379 148.274 236.091 148.387 235.975 148.616C234.779 150.981 233.589 153.35 232.45 155.752C232.074 156.545 231.85 157.436 231.557 158.282C231.557 158.282 231.552 158.391 231.435 158.455C231.229 158.733 231.141 158.947 231.052 159.162C231.052 159.162 231.041 159.119 230.993 159.162C230.89 159.306 230.836 159.408 230.782 159.509C230.782 159.509 230.786 159.465 230.708 159.463C230.056 160.394 229.483 161.326 228.911 162.259C228.91 162.259 228.906 162.234 228.821 162.23C228.505 162.368 228.236 162.461 228.051 162.659C225.484 165.417 222.925 168.185 220.379 170.97C220.202 171.163 220.144 171.502 220.03 171.774Z" fill="#FFA500"/>
<path d="M132.709 179.538C132.506 179.686 132.302 179.834 132.049 179.899C132.006 179.495 132.012 179.174 132.019 178.852C131.93 178.847 131.84 178.841 131.751 178.836C131.592 179.303 131.432 179.771 131.273 180.238C127.322 183.007 123.381 185.921 120.319 190.028C117.998 193.142 116.238 196.823 114.224 200.249C113.969 200.684 113.691 201.103 113.339 201.665C112.963 196.595 115.151 192.713 117.707 189.033C119.26 186.796 120.989 184.723 122.623 182.56C122.857 182.249 122.999 181.841 123.189 181.34C123.194 181.202 123.193 181.216 123.302 181.248C123.651 180.976 123.889 180.672 124.128 180.367C124.128 180.367 124.12 180.399 124.21 180.44C124.583 180.41 124.889 180.406 125.147 180.258C126.981 179.208 128.806 178.129 130.742 177.088C131.427 177.11 132.004 177.104 132.718 177.096C132.715 177.923 132.712 178.73 132.709 179.538Z" fill="#FFA500"/>
<path d="M248.015 289.642C247.705 289.649 247.51 289.635 247.219 289.642C246.072 289.65 245.022 289.637 243.852 289.647C236.125 289.665 228.517 289.659 220.909 289.657C219.137 289.657 217.364 289.67 215.471 289.699C214.817 289.706 214.284 289.691 213.638 289.701C205.588 289.709 197.65 289.688 189.712 289.677C164.592 289.644 139.473 289.634 114.354 289.569C108.432 289.554 102.83 288.068 97.5507 285.39C97.0133 285.118 96.528 284.742 96.0019 284.313C95.9852 284.211 96.0819 284.124 96.1755 284.141C98.9438 285.262 101.577 286.488 104.311 287.418C105.728 287.9 107.321 287.879 108.839 288.048C112.053 288.404 115.269 289.032 118.485 289.031C156.122 289.019 193.759 288.907 231.397 288.84C233.689 288.836 235.981 289.033 238.274 289.059C241.629 289.099 244.985 289.068 248.341 289.069C252.655 289.069 256.97 289.1 261.284 289.064C265.529 289.028 269.774 288.875 274.019 288.867C277.338 288.861 280.658 289.066 283.977 289.053C288.959 289.034 293.941 288.886 298.924 288.833C302.611 288.794 306.301 288.878 309.987 288.796C312.36 288.744 314.728 288.472 317.101 288.335C319.085 288.22 320.782 287.108 322.615 286.694C326.009 285.926 329.05 284.626 331.815 282.582C333.503 281.335 335.241 280.145 336.84 278.791C337.825 277.958 338.498 276.76 339.47 275.905C343.379 272.469 345.55 267.911 347.709 263.344C348.034 262.656 348.116 261.854 348.31 261.105C348.137 260.987 347.964 260.87 347.791 260.753C347.638 261.056 347.491 261.362 347.331 261.661C346.474 263.272 345.709 264.942 344.727 266.473C343.801 267.918 343.029 269.612 341.079 270.049C341.621 269.352 342.163 268.655 342.747 267.881C346.088 263.661 348.317 258.946 350.148 254C350.284 256.616 349.828 259.135 348.963 261.561C344.872 273.026 337.385 281.414 326.196 286.351C322.117 288.151 317.79 289.036 313.348 289.341C311.921 289.439 310.49 289.488 308.831 289.554C307.206 289.572 305.812 289.596 304.418 289.619C302.932 289.604 301.445 289.589 299.728 289.576C298.967 289.596 298.438 289.614 297.909 289.631C297.709 289.617 297.509 289.603 297.091 289.591C295.396 289.609 293.918 289.625 292.44 289.641C292.24 289.629 292.04 289.617 291.628 289.606C290.804 289.621 290.191 289.635 289.578 289.65C287.569 289.637 285.559 289.623 283.324 289.612C282.741 289.628 282.384 289.643 282.028 289.658C281.827 289.646 281.626 289.633 281.265 289.621C281.106 289.621 280.984 289.654 280.984 289.654C280.533 289.639 280.083 289.625 279.521 289.632C271.766 289.64 264.122 289.627 256.358 289.636C256.038 289.644 255.838 289.63 255.427 289.617C254.517 289.633 253.82 289.65 253.123 289.666C252.838 289.652 252.553 289.637 252.05 289.621C251.22 289.632 250.608 289.645 249.996 289.658C249.374 289.646 248.752 289.633 248.015 289.642Z" fill="#8A2BE2"/>
<path d="M286.75 207.173C287.805 206.337 288.698 205.471 289.394 204.199C290.004 203.086 290.862 202.108 291.314 200.828C291.9 199.166 293.247 198.17 294.862 197.467C295.302 197.275 295.865 196.561 295.808 196.169C295.51 194.124 296.383 192.663 297.789 191.351C298.095 191.065 298.19 190.566 298.453 190.219C299.061 189.42 299.572 188.29 300.385 187.977C301.197 187.664 301.395 187.134 301.712 186.595C302.524 185.212 303.211 183.753 304.061 182.394C304.899 181.054 305.92 179.83 306.769 178.497C307.19 177.836 307.33 176.999 307.732 176.321C308.188 175.551 308.825 174.89 309.326 174.143C309.806 173.428 310.195 172.651 310.661 171.926C310.835 171.655 311.173 171.487 311.333 171.212C311.739 170.514 312.852 170.198 312.502 169.073C312.47 168.968 312.624 168.727 312.749 168.663C315.107 167.448 315.733 164.905 317.155 162.974C317.557 162.429 318.181 162.045 318.563 161.491C318.933 160.952 319.124 160.288 319.497 159.642C319.798 159.925 319.995 160.246 320.247 160.658C320.979 159.213 322.023 159.836 323.298 160.326C323.002 159.365 322.788 158.672 322.607 158.084C323.039 157.884 323.544 157.651 324.15 157.371C324.618 158.911 325.771 158.423 326.969 158.178C326.752 158.418 326.536 158.658 326.319 158.898C326.358 158.98 326.397 159.061 326.435 159.142C326.97 159.036 327.504 158.93 328.038 158.824C327.849 158.444 327.616 158.079 327.49 157.679C327.424 157.47 327.462 157.079 327.601 156.981C328.054 156.664 328.576 156.445 329.236 156.102C328.826 155.446 328.335 154.662 327.909 153.98C328.694 153.7 329.332 153.472 330.039 153.247C330.152 153.251 330.198 153.252 330.271 153.283C330.39 153.341 330.452 153.306 330.483 153.154C330.483 153.1 330.484 152.991 330.564 152.975C331.111 152.624 331.577 152.29 332.114 151.951C332.233 151.945 332.28 151.943 332.422 151.946C333.507 152.231 334.496 152.512 335.485 152.792C335.332 152.669 335.18 152.546 335.028 152.423C335.763 151.918 336.497 151.414 337.219 151C336.988 151.507 336.671 151.901 336.575 152.344C336.385 153.211 335.274 153.771 335.656 154.819C335.256 155.229 334.95 155.665 334.566 156.148C334.38 156.522 334.271 156.849 334.069 157.171C333.753 157.497 333.529 157.827 333.248 158.216C333.172 158.435 333.154 158.595 333.065 158.75C332.925 158.806 332.855 158.866 332.699 158.961C332.501 159.34 332.389 159.685 332.187 160.035C331.831 160.389 331.565 160.736 331.208 161.112C331.008 161.473 330.9 161.805 330.703 162.095C329.89 163.202 329.166 164.352 328.348 165.504C328.041 165.845 327.83 166.184 327.546 166.557C327.437 166.744 327.401 166.897 327.308 167.081C327.213 167.19 327.176 167.268 327.077 167.362C326.931 167.418 326.875 167.482 326.775 167.602C326.654 167.778 326.605 167.922 326.468 168.087C326.279 168.366 326.177 168.624 325.985 168.881C325.317 169.635 324.74 170.391 324.093 171.203C323.408 172.382 322.791 173.506 322.169 174.622C322.163 174.614 322.179 174.603 322.116 174.631C322.002 174.734 321.951 174.809 321.9 174.875C321.9 174.865 321.919 174.864 321.847 174.902C321.704 175.022 321.633 175.104 321.549 175.254C321.404 175.431 321.273 175.54 321.086 175.707C320.985 175.909 320.938 176.054 320.887 176.188C320.884 176.177 320.905 176.186 320.818 176.209C320.615 176.483 320.5 176.735 320.37 176.97C320.355 176.954 320.392 176.979 320.301 176.993C319.737 177.819 319.263 178.63 318.814 179.432C318.837 179.422 318.858 179.468 318.759 179.477C318.012 180.471 317.364 181.456 316.703 182.429C316.689 182.417 316.718 182.439 316.625 182.426C316.032 183.16 315.532 183.908 314.954 184.699C314.79 185.011 314.703 185.28 314.523 185.545C314.229 185.975 314.029 186.41 313.76 186.856C313.648 186.943 313.604 187.02 313.494 187.106C313.37 187.182 313.312 187.248 313.2 187.374C313.122 187.592 313.098 187.75 312.98 187.911C312.778 188.175 312.668 188.436 312.465 188.696C312.264 188.959 312.157 189.223 311.958 189.466C311.377 190.142 310.887 190.84 310.393 191.59C310.388 191.642 310.384 191.747 310.3 191.763C309.223 191.955 309.333 192.885 308.941 193.557C308.324 194.442 307.788 195.298 307.173 196.192C306.818 196.832 306.543 197.434 306.176 198.043C305.894 198.403 305.706 198.755 305.453 199.122C305.334 199.2 305.278 199.264 305.139 199.361C304.568 200.134 304.078 200.874 303.532 201.664C303.413 201.849 303.351 201.984 303.21 202.155C302.622 203.091 302.113 203.99 301.611 204.935C301.619 204.98 301.586 205.065 301.491 205.048C300.86 205.92 300.323 206.809 299.775 207.689C299.764 207.681 299.79 207.69 299.715 207.705C299.598 207.81 299.556 207.9 299.486 208.073C297.646 211.039 295.832 213.922 293.926 216.821C293.727 217.045 293.621 217.255 293.52 217.454C293.525 217.443 293.547 217.435 293.47 217.48C293.179 217.727 292.964 217.93 292.665 218.135C292.479 218.309 292.377 218.478 292.225 218.723C291.678 219.058 291.181 219.317 290.665 219.486C290.226 218.933 289.807 218.47 289.243 217.846C289.259 217.782 289.337 217.456 289.488 217.09C289.733 216.803 289.906 216.556 290.08 216.308C289.979 216.243 289.879 216.177 289.778 216.111C289.602 216.402 289.425 216.694 289.147 216.994C288.645 217.035 288.242 217.066 287.812 217.073C287.784 217.048 287.729 216.996 287.739 216.921C287.768 216.746 287.786 216.646 287.829 216.526C287.854 216.507 287.844 216.413 287.844 216.413C287.844 216.413 287.756 216.496 287.646 216.501C286.451 216.769 285.366 217.031 284 217.361C284.633 216.709 285.141 216.186 285.722 215.674C285.88 215.62 285.966 215.555 286.051 215.49C285.937 215.402 285.823 215.313 285.654 215.158C285.371 214.526 285.145 213.961 284.917 213.333C284.915 213.271 284.919 213.147 284.982 213.113C285.082 212.754 285.12 212.428 285.256 212.1C286.231 211.55 287.106 211.001 287.996 210.445C287.635 210.365 287.262 210.282 286.862 210.193C287.246 209.54 287.572 208.986 287.757 208.672C287.374 208.264 287.1 207.971 286.802 207.613C286.766 207.502 286.754 207.457 286.743 207.352C286.745 207.292 286.75 207.173 286.75 207.173ZM332.806 153.601C332.781 153.878 332.757 154.156 332.732 154.433C332.965 154.412 333.198 154.39 333.431 154.368C333.283 154.106 333.134 153.843 332.806 153.601ZM324.86 161.021C324.71 161.332 324.559 161.643 324.408 161.954C324.533 162.004 324.658 162.054 324.783 162.103C325.181 161.881 325.756 161.73 324.86 161.021ZM323.835 160.98C323.904 160.873 323.973 160.767 324.042 160.66C323.901 160.615 323.761 160.569 323.62 160.524C323.649 160.662 323.679 160.799 323.835 160.98ZM334.64 153.555C334.622 153.481 334.605 153.407 334.588 153.332C334.535 153.356 334.483 153.381 334.43 153.405C334.492 153.489 334.553 153.574 334.64 153.555ZM287.395 207.618L287.368 207.711C287.368 207.711 287.433 207.652 287.395 207.618ZM309.961 175.567C309.947 175.523 309.933 175.478 309.918 175.433C309.904 175.477 309.89 175.521 309.961 175.567ZM289.306 206.169C289.356 206.168 289.331 206.169 289.306 206.169ZM292.546 217.17L292.609 217.198C292.609 217.198 292.595 217.137 292.546 217.17ZM313.202 171.347L313.157 171.321C313.157 171.321 313.163 171.37 313.202 171.347ZM308.963 175.526L309.019 175.56C309.019 175.56 309.012 175.493 308.963 175.526Z" fill="#8A2BE2"/>
<path d="M332.254 165.741C332.163 165.848 332.098 165.9 332.018 166.024C331.815 166.278 331.642 166.479 331.466 166.768C331.029 167.404 330.594 167.949 330.163 168.59C329.971 168.761 329.685 168.778 329.593 168.92C328.118 171.198 326.668 173.491 325.214 175.878C325.13 175.999 325.061 176.047 324.984 176.179C324.783 176.438 324.608 176.639 324.436 176.931C324 177.34 323.437 177.572 323.144 177.993C321.624 180.177 320.161 182.402 318.708 184.633C318.457 185.018 318.354 185.499 318.184 186.034C318.01 186.333 317.835 186.534 317.663 186.825C316.839 187.871 315.907 188.755 315.205 189.795C313.247 192.694 311.382 195.655 309.493 198.6C309.384 198.77 309.381 199.009 309.328 199.313C309.245 199.442 309.18 199.492 309.101 199.619C308.229 200.615 307.281 201.483 306.561 202.51C304.239 205.819 301.983 209.176 299.736 212.538C298.536 214.334 297.451 216.209 296.23 217.991C295.332 219.301 294.136 220.239 292 220.278C292.738 218.861 293.306 217.61 294.014 216.443C295.856 213.405 298.345 210.774 299.699 207.328C299.95 206.845 300.196 206.457 300.423 205.974C300.404 205.878 300.408 205.891 300.503 205.885C300.725 205.623 300.852 205.365 300.98 205.108C300.98 205.108 300.987 205.133 301.035 205.098C301.136 204.985 301.189 204.907 301.242 204.829C301.242 204.829 301.189 204.861 301.268 204.842C301.491 204.74 301.689 204.692 301.774 204.568C304.144 201.08 306.509 197.589 308.847 194.079C309.016 193.824 308.967 193.424 309.019 193.091C309.019 193.091 309.027 193.116 309.108 193.12C309.309 193.079 309.47 193.068 309.542 192.982C310.474 191.873 311.527 190.836 312.279 189.615C313 188.444 313.407 187.079 313.953 185.799C313.953 185.799 313.954 185.794 313.95 185.793C314.177 185.714 314.51 185.709 314.623 185.549C316.633 182.707 318.624 179.851 320.593 176.981C320.745 176.759 320.71 176.409 320.734 176.019C320.706 175.919 320.708 175.93 320.807 175.938C321.757 175.387 322.43 174.721 322.315 173.585C322.315 173.585 322.301 173.605 322.389 173.603C322.855 172.986 323.233 172.372 323.612 171.757C323.612 171.757 323.6 171.777 323.687 171.774C323.929 171.705 324.148 171.682 324.232 171.563C325.485 169.775 326.73 167.982 327.942 166.166C328.047 166.009 327.905 165.688 327.877 165.442C327.877 165.442 327.893 165.421 327.996 165.414C328.151 165.254 328.202 165.101 328.254 164.948C328.254 164.948 328.245 164.98 328.339 164.981C328.729 164.453 329.025 163.926 329.322 163.398C329.322 163.398 329.323 163.423 329.403 163.426C330.482 162.204 331.561 161.036 332.451 159.739C333.032 158.893 333.34 157.86 333.77 156.911C333.77 156.911 333.768 156.937 333.853 156.927C334.051 156.649 334.163 156.381 334.276 156.112C334.276 156.112 334.28 156.137 334.364 156.137C334.568 155.871 334.687 155.605 334.807 155.339C334.807 155.339 334.807 155.335 334.804 155.334C335.103 155.138 335.502 155.011 335.692 154.738C338.388 150.874 341.131 147.041 343.703 143.095C345.442 140.426 346.925 137.591 348.535 134.837C348.712 134.534 348.971 134.278 349.193 134C349.316 134.045 349.439 134.091 349.562 134.136C349.498 134.56 349.46 134.991 349.366 135.408C348.383 139.772 346.36 143.675 343.994 147.418C342.13 150.366 340.208 153.278 338.323 156.213C338.164 156.46 338.089 156.761 337.978 157.133C337.633 157.685 337.285 158.141 336.937 158.693C336.761 158.989 336.586 159.19 336.413 159.479C336.289 159.599 336.109 159.587 336.049 159.667C334.751 161.401 333.087 162.898 332.507 165.199C332.427 165.421 332.347 165.543 332.254 165.741Z" fill="#FFA500"/>
<path d="M332.599 152.395C332.133 152.729 331.667 153.064 331.074 153.359C330.807 153.441 330.667 153.562 330.527 153.683C329.889 153.911 329.25 154.139 328.465 154.42C328.891 155.101 329.382 155.885 329.792 156.542C329.132 156.884 328.61 157.104 328.157 157.421C328.018 157.518 327.98 157.909 328.046 158.118C328.172 158.518 328.405 158.884 328.594 159.264C328.06 159.37 327.526 159.476 326.991 159.582C326.953 159.5 326.914 159.419 326.875 159.338C327.092 159.097 327.308 158.857 327.525 158.617C326.327 158.863 325.174 159.351 324.706 157.81C324.1 158.09 323.595 158.324 323.163 158.523C323.344 159.111 323.558 159.805 323.854 160.765C322.58 160.276 321.535 159.652 320.803 161.098C320.551 160.685 320.354 160.364 320.093 160.024C319.736 157.865 320.38 157.343 322.447 158.045C322.432 155.758 323.982 154.318 325.434 152.728C326.68 152.125 327.798 151.548 329.153 150.849C328.344 150.464 327.853 150.23 327.362 149.996C327.527 147.922 329.031 146.9 330.688 145.931C330.804 145.955 330.904 145.939 330.904 145.939L330.831 145.837C330.869 144.741 330.726 143.738 332.317 143.325C333.114 143.118 333.628 141.823 334.433 141C334.9 141.366 335.204 141.752 335.496 142.121C334.455 143.267 334.49 143.618 335.5 144.28C335.83 143.746 336.162 143.207 336.749 142.255C337.009 142.902 337.155 143.267 337.301 143.631C337.386 143.557 337.471 143.482 337.556 143.408C337.468 143.015 337.379 142.622 337.29 142.228C337.679 142.055 338.068 141.881 338.53 141.772C338.562 142.08 338.52 142.324 338.445 142.772C338.973 142.415 339.306 142.19 339.706 141.96C339.818 141.955 339.864 141.956 339.927 142.037C340.11 142.35 340.273 142.582 340.395 142.754C339.877 143.16 339.25 143.475 338.891 143.98C338.475 144.565 337.753 145.322 338.85 146.075C338.825 146.841 338.825 147.524 338.825 148.146C339.043 148.1 339.409 148.023 339.847 148.005C339.99 148.285 340.061 148.506 340.062 148.786C339.838 149.191 339.685 149.536 339.515 149.906C339.498 149.931 339.427 149.857 339.399 149.951C339.356 150.109 339.34 150.172 339.257 150.236C338.722 150.606 338.255 150.978 337.788 151.349C337.053 151.853 336.319 152.358 335.584 152.862C335.736 152.985 335.889 153.108 336.041 153.231C335.052 152.951 334.063 152.671 332.992 152.294C333.417 151.653 333.923 151.109 334.419 150.648C334.373 150.963 334.338 151.195 334.237 151.857C334.964 151.262 335.386 150.917 335.808 150.572C335.755 150.487 335.702 150.402 335.648 150.317C335.244 150.397 334.84 150.478 334.451 150.475C335.242 150.088 336.017 149.786 336.813 149.475C336.919 150.009 336.977 150.302 337.034 150.595C337.145 150.611 337.257 150.627 337.368 150.644C337.53 150.195 337.692 149.746 337.917 149.275C338.052 149.173 338.124 149.093 338.195 149.013C338.147 148.971 338.098 148.929 338.05 148.887C337.964 149.003 337.877 149.118 337.706 149.234C336.656 149.059 336.638 149.036 337.048 148.501C337.06 148.524 337.119 148.525 337.119 148.525C337.119 148.525 337.037 148.479 337.037 148.394C336.953 148.109 336.87 147.91 336.78 147.703C336.774 147.697 336.76 147.685 336.756 147.594C336.608 147.152 336.465 146.802 336.321 146.452C335.482 148.445 334.478 149.953 332.121 149.927C332.294 150.82 332.446 151.608 332.599 152.395ZM325.974 158.101C325.929 158.149 325.885 158.197 325.841 158.245C325.936 158.208 326.03 158.171 326.167 158.097L326.158 158.016C326.158 158.016 326.077 158.085 325.974 158.101ZM334.085 144.082C333.913 144.015 333.74 143.948 333.567 143.881C333.511 143.946 333.455 144.011 333.399 144.076C333.834 144.705 334.269 145.334 334.704 145.963C334.825 145.895 334.945 145.827 335.066 145.759C334.785 145.237 334.504 144.716 334.085 144.082ZM321.603 158.468C321.369 158.653 321.135 158.839 320.901 159.024C321.006 159.115 321.111 159.206 321.216 159.297C321.35 159.07 321.485 158.843 321.603 158.468ZM330.039 152.254C330.133 152.41 330.226 152.565 330.319 152.72C330.38 152.699 330.441 152.678 330.501 152.656C330.483 152.326 330.465 151.995 330.429 151.352C330.205 151.8 330.131 151.947 330.039 152.254ZM325.036 153.869C325.163 153.822 325.291 153.775 325.419 153.728C325.353 153.648 325.287 153.569 325.22 153.49C325.126 153.58 325.032 153.671 325.036 153.869ZM329.004 152.011C328.926 152.118 328.849 152.225 328.772 152.332C328.84 152.358 328.908 152.383 328.975 152.409C329.014 152.304 329.053 152.199 329.004 152.011ZM327.834 152.411C327.811 152.303 327.788 152.196 327.766 152.089C327.679 152.157 327.592 152.226 327.504 152.294C327.583 152.36 327.662 152.426 327.834 152.411ZM333.703 151.99C333.688 151.91 333.673 151.829 333.658 151.748C333.639 151.828 333.62 151.908 333.703 151.99ZM334.578 152.067C334.643 152.113 334.707 152.158 334.771 152.203C334.73 152.136 334.689 152.069 334.578 152.067ZM322.157 159.035C322.171 159.112 322.186 159.189 322.2 159.267C322.218 159.19 322.236 159.113 322.157 159.035ZM323.609 155.805C323.696 155.789 323.783 155.773 323.87 155.757C323.783 155.737 323.695 155.716 323.609 155.805ZM337.726 145.33C337.778 145.285 337.831 145.239 337.883 145.193C337.848 145.172 337.792 145.126 337.782 145.134C337.721 145.187 337.671 145.251 337.726 145.33ZM322.945 159.245C322.981 159.245 322.963 159.245 322.945 159.245Z" fill="#8A2BE2"/>
</svg>
